{"title":"Happiness Is a Warm Blanket, Charlie Brown (2011) BDRip ukr sub","uid":11238624,"size":364305316,"categoryP":"video","categoryS":"handheld","magnet":"?xt=urn:btih:c810876aa3c88c7fc8e408adacfcd7781ac467e9&amp;dn=Happiness+Is+a+Warm+Blanket%2C+Charlie+Brown+%282011%29+BDRip+ukr+sub&amp;tr=udp%3A%2F%2Ftracker.openbittorrent.com%3A80&amp;tr=udp%3A%2F%2Fopen.demonii.com%3A1337&amp;tr=udp%3A%2F%2Ftracker.coppersurfer.tk%3A6969&amp;tr=udp%3A%2F%2Fexodus.desync.com%3A6969","seeders":0,"leechers":0,"uploader":"orysia","files":-1,"time":1413642158,"description":"\nDirectors: Andrew Beall, Frank Molieri\nWriters: Charles M. Schulz (characters), Craig Schulz\nStars: Austin Lux, Amanda Pace, Trenton Rogers\n\nLinus is pushed to his limits when he learns Grandma is coming to visit and plans on ridding him of his childish security blanket. \n\nFormat                                   : MPEG-4\nFormat profile                           : Base Media\nCodec ID                                 : isom\nFile size                                : 347 MiB\nDuration                                 : 45mn 41s\nOverall bit rate mode                    : Variable\nOverall bit rate                         : 1 063 Kbps\nMovie name                               : Happiness Is a Warm Blanket, Charlie Brown*2011 /antusyrzhuk\nGenre                                    : Comedy\nRecorded date                            : 2011\nEncoded date                             : UTC 2014-10-17 09:42:46\nTagged date                              : UTC 2014-10-17 09:42:46\nComment                                  : http://cinemasterpiece .wordpress .com/\n\nVideo\nID                                       : 1\nFormat                                   : AVC\nFormat/Info                              : Advanced Video Codec\nFormat profile                           : &lt;a class=&quot;__cf_email__&quot; href=&quot;/cdn-cgi/l/email-protection&quot; data-cfemail=&quot;bff2ded6d1fff38c918e&quot;&gt;[email&amp;#160;protected]&lt;/a&gt;&lt;script cf-hash='f9e31' type=&quot;text/javascript&quot;&gt;\n/* &lt;![CDATA[ */!function(){try{var t=&quot;currentScript&quot;in document?document.currentScript:function(){for(var t=document.getElementsByTagName(&quot;script&quot;),e=t.length;e--;)if(t[e].getAttribute(&quot;cf-hash&quot;))return t[e]}();if(t&amp;&amp;t.previousSibling){var e,r,n,i,c=t.previousSibling,a=c.getAttribute(&quot;data-cfemail&quot;);if(a){for(e=&quot;&quot;,r=parseInt(a.substr(0,2),16),n=2;a.length-n;n+=2)i=parseInt(a.substr(n,2),16)^r,e+=String.fromCharCode(i);e=document.createTextNode(e),c.parentNode.replaceChild(e,c)}}}catch(u){}}();/* ]]&gt; */&lt;/script&gt;\nFormat settings, CABAC                   : Yes\nFormat settings, ReFrames                : 10 frames\nCodec ID                                 : avc1\nCodec ID/Info                            : Advanced Video Coding\nDuration                                 : 45mn 40s\nBit rate                                 : 950 Kbps\nMaximum bit rate                         : 7 139 Kbps\nWidth                                    : 854 pixels\nHeight                                   : 480 pixels\nDisplay aspect ratio                     : 16:9\nFrame rate mode                          : Constant\nFrame rate                               : 23.976 fps\nColor space                              : YUV\nChroma subsampling                       : 4:2:0\nBit depth                                : 8 bits\nScan type                                : Progressive\nBits/(Pixel*Frame)                       : 0.097\nStream size                              : 310 MiB (89%)\nWriting library                          : x264 core 142 r2431 ac76440\n\nAudio\nID                                       : 2\nFormat                                   : AAC\nFormat/Info                              : Advanced Audio Codec\nFormat profile                           : LC\nCodec ID                                 : 40\nDuration                                 : 45mn 41s\nBit rate mode                            : Variable\nBit rate                                 : 109 Kbps\nMaximum bit rate                         : 152 Kbps\nChannel(s)                               : 2 channels\nChannel positions                        : Front: L R\nSampling rate                            : 48.0 KHz\nCompression mode                         : Lossy\nStream size                              : 35.7 MiB (10%)\nLanguage                                 : English\n\n+ Ukrainian subtitles\n\nScreenshots: &lt;a href=&quot;\nhttp://postimg.org/image/kxx35vrqd/&quot; rel=&quot;nofollow&quot; target=&quot;_NEW&quot;&gt;\nhttp://postimg.org/image/kxx35vrqd/&lt;/a&gt; &lt;a href=&quot;\nhttp://postimg.org/image/c1hpo7bqd/&quot; rel=&quot;nofollow&quot; target=&quot;_NEW&quot;&gt;\nhttp://postimg.org/image/c1hpo7bqd/&lt;/a&gt; &lt;a href=&quot;\nhttp://postimg.org/image/bfxc5u61x/&quot; rel=&quot;nofollow&quot; target=&quot;_NEW&quot;&gt;\nhttp://postimg.org/image/bfxc5u61x/&lt;/a&gt; &lt;a href=&quot;\nhttp://postimg.org/image/i53vlurdx/&quot; rel=&quot;nofollow&quot; target=&quot;_NEW&quot;&gt;\nhttp://postimg.org/image/i53vlurdx/&lt;/a&gt;\n\nEnglish subtitles: http://subscene.com/subtitles/happiness-is-a-warm-blanket-charlie-brown/english/996503\nEnglish subtitles SDH: http://subscene.com/subtitles/happiness-is-a-warm-blanket-charlie-brown/english/996505\nFrench subtitles: http://subscene.com/subtitles/happiness-is-a-warm-blanket-charlie-brown/french/996506\nGerman subtitles: http://subscene.com/subtitles/happiness-is-a-warm-blanket-charlie-brown/german/996515\nSpanish subtitles: http://subscene.com/subtitles/happiness-is-a-warm-blanket-charlie-brown/spanish/996521","torrent":{"xt":"urn:btih:c810876aa3c88c7fc8e408adacfcd7781ac467e9","amp;dn":"Happiness+Is+a+Warm+Blanket%2C+Charlie+Brown+%282011%29+BDRip+ukr+sub","amp;tr":["udp%3A%2F%2Ftracker.openbittorrent.com%3A80","udp%3A%2F%2Fopen.demonii.com%3A1337","udp%3A%2F%2Ftracker.coppersurfer.tk%3A6969","udp%3A%2F%2Fexodus.desync.com%3A6969"],"infoHash":"c810876aa3c88c7fc8e408adacfcd7781ac467e9","infoHashBuffer":{"type":"Buffer","data":[200,16,135,106,163,200,140,127,200,228,8,173,172,252,215,120,26,196,103,233]},"announce":[],"urlList":[]}}